<svg xmlns="http://www.w3.org/2000/svg" id="Capa_2" data-name="Capa 2" viewBox="0 0 767.12 144"><defs><style>      .cls-1 {        fill: #b2bc79;        stroke-width: 0px;      }    </style></defs><g id="Grupo_9019" data-name="Grupo 9019"><g><path class="cls-1" d="m574.95,68.08c8.48-5.45,16.1-14.33,16.1-30.89v-.57c.32-8.71-2.51-17.23-7.98-24.03-6.73-8.12-17.82-12.35-31.04-12.35h-44.09v141.28h45.27c25.76,0,42.89-13.32,42.89-38.76v-1.01c0-18.56-8.48-27.86-21.23-33.71h.11l-.02.04Zm-8.16-26.03c0,10.69-6.95,15.93-17.8,15.93h-17.13v-31.88h18.35c10.5,0,16.6,5.45,16.6,15.74v.19h-.02v.02Zm5.07,57.13c0,10.9-6.94,16.54-17.97,16.54h-22.03v-33.06h21.61c12.21,0,18.48,6.25,18.48,16.35v.19h-.08v-.02Z"></path><polygon class="cls-1" points="0 .25 0 141.54 73.46 141.54 73.46 117.32 24.31 117.32 24.35 82.45 66.6 82.45 66.6 58.25 24.41 58.25 24.43 24.47 72.89 24.47 72.87 .25 0 .25"></polygon><polygon class="cls-1" points="83.25 .25 83.25 141.54 151.81 141.54 151.81 117.34 108.33 117.34 108.33 .25 83.25 .25"></polygon><polygon class="cls-1" points="269.71 .25 242.12 57.57 214.18 .25 186.95 .25 186.95 141.54 212.2 141.54 212.2 51.72 241.6 109.66 242.12 109.66 271.67 51.32 271.67 141.54 297.13 141.54 297.13 .25 269.71 .25"></polygon><path class="cls-1" d="m359.93,144c28.3,0,46.82-18.79,46.82-57.83V.25h-25.15v87.33c0,19.61-8.21,29.31-21.32,29.31s-21.32-9.93-21.32-29.92V.25h-25.25v86.51c0,38.21,18.16,57.22,46.3,57.22h-.08v.02Z"></path><polygon class="cls-1" points="421.9 .25 421.9 141.54 495.34 141.54 495.34 117.32 446.56 117.32 446.52 83.12 488.33 83.12 488.33 58.92 446.56 58.92 446.56 24.47 494.67 24.47 494.67 .25 421.9 .25"></polygon><polygon class="cls-1" points="608.95 .25 608.95 141.54 677.51 141.54 677.51 117.34 634.06 117.34 634.06 .25 608.95 .25"></polygon><polygon class="cls-1" points="688.77 0 688.77 141.29 767.07 141.29 767.12 117.07 714.78 117.07 714.76 82.17 759.69 82.17 759.69 57.95 714.76 57.95 714.76 24.22 766.36 24.22 766.36 0 688.77 0"></polygon></g></g></svg>